<?xml version="1.0" encoding="UTF-8" standalone="no"?>
<!-- Created with Inkscape (http://www.inkscape.org/) -->

<svg
   version="1.1"
   id="svg136976"
   width="800"
   height="800"
   viewBox="0 0 800 800"
   sodipodi:docname="plant-bulrush-pdv.svg"
   inkscape:version="1.2 (dc2aedaf03, 2022-05-15)"
   xmlns:inkscape="http://www.inkscape.org/namespaces/inkscape"
   xmlns:sodipodi="http://sodipodi.sourceforge.net/DTD/sodipodi-0.dtd"
   xmlns="http://www.w3.org/2000/svg"
   xmlns:svg="http://www.w3.org/2000/svg">
  <defs
     id="defs136980">
    <clipPath
       clipPathUnits="userSpaceOnUse"
       id="clipPath136992">
      <path
         d="M 0,600 H 600 V 0 H 0 Z"
         id="path136990" />
    </clipPath>
  </defs>
  <sodipodi:namedview
     id="namedview136978"
     pagecolor="#ffffff"
     bordercolor="#000000"
     borderopacity="0.25"
     inkscape:showpageshadow="2"
     inkscape:pageopacity="0.0"
     inkscape:pagecheckerboard="0"
     inkscape:deskcolor="#d1d1d1"
     showgrid="false"
     inkscape:zoom="1.04625"
     inkscape:cx="400"
     inkscape:cy="400.4779"
     inkscape:window-width="1920"
     inkscape:window-height="1017"
     inkscape:window-x="-8"
     inkscape:window-y="-8"
     inkscape:window-maximized="1"
     inkscape:current-layer="g136984">
    <inkscape:page
       x="0"
       y="0"
       id="page136982"
       width="800"
       height="800" />
  </sodipodi:namedview>
  <g
     id="g136984"
     inkscape:groupmode="layer"
     inkscape:label="Page 1"
     transform="matrix(1.3333333,0,0,-1.3333333,0,800)">
    <g
       id="g136986">
      <g
         id="g136988"
         clip-path="url(#clipPath136992)">
        <g
           id="g136994"
           transform="translate(290.6592,107.9277)">
          <path
             d="M 0,0 C 117.647,0 213.601,23.18 213.601,51.6 213.601,80.02 117.647,103.199 0,103.199 -117.646,103.199 -213.6,80.02 -213.6,51.6 -213.6,23.18 -117.646,0 0,0"
             style="fill:#bad1ff;fill-opacity:1;fill-rule:evenodd;stroke:none"
             id="path136996" />
        </g>
        <g
           id="g136998"
           transform="translate(356.0225,170.0156)">
          <path
             d="m 0,0 c 26.329,0 47.804,5.303 47.804,11.803 0,6.5 -21.475,11.801 -47.804,11.801 -26.328,0 -47.803,-5.301 -47.803,-11.801 C -47.803,5.303 -26.328,0 0,0"
             style="fill:#598236;fill-opacity:1;fill-rule:evenodd;stroke:none"
             id="path137000" />
        </g>
        <g
           id="g137002"
           transform="translate(376.9453,178.9316)">
          <path
             d="m 0,0 c -5.393,-3.113 -17.913,-5.297 -32.499,-5.297 -19.512,0 -35.33,3.906 -35.33,8.723 0,2.457 4.121,4.678 10.748,6.263 -1.821,-1.052 -2.83,-2.209 -2.83,-3.425 0,-4.817 15.817,-8.721 35.329,-8.721 9.555,0 18.223,0.936 24.582,2.457"
             style="fill:#99b580;fill-opacity:1;fill-rule:evenodd;stroke:none"
             id="path137004" />
        </g>
        <g
           id="g137006"
           transform="translate(277.167,167.9941)">
          <path
             d="m 0,0 c 26.328,0 47.803,5.301 47.803,11.801 0,6.5 -21.475,11.801 -47.803,11.801 -26.328,0 -47.803,-5.301 -47.803,-11.801 C -47.803,5.301 -26.328,0 0,0"
             style="fill:#598236;fill-opacity:1;fill-rule:evenodd;stroke:none"
             id="path137008" />
        </g>
        <g
           id="g137010"
           transform="translate(298.0889,176.9082)">
          <path
             d="m 0,0 c -5.393,-3.113 -17.913,-5.295 -32.499,-5.295 -19.512,0 -35.329,3.904 -35.329,8.721 0,2.459 4.121,4.679 10.748,6.263 -1.822,-1.05 -2.831,-2.209 -2.831,-3.425 0,-4.817 15.817,-8.721 35.329,-8.721 9.556,0 18.223,0.936 24.582,2.457"
             style="fill:#99b580;fill-opacity:1;fill-rule:evenodd;stroke:none"
             id="path137012" />
        </g>
        <g
           id="g137014"
           transform="translate(311.667,201.666)">
          <path
             d="M 0,0 C 18.919,95.83 37.764,191.881 77.747,224.516 35.471,170.997 27.225,76.641 13.584,-11.24 9.056,-7.494 4.528,-3.748 0,0"
             style="fill:#8bbf5e;fill-opacity:1;fill-rule:evenodd;stroke:none"
             id="path137016" />
        </g>
        <g
           id="g137018"
           transform="translate(322.1426,178.0508)">
          <path
             d="m 0,0 c -14.382,56.098 -23.138,113.947 -43.146,168.293 -9.876,26.827 -20.421,59.051 -45.564,72.655 -12.521,6.776 -9.577,-26.818 -14.366,-40.227 4.789,10.263 4.956,37.085 14.366,30.787 20.986,-14.047 29.945,-41.665 37.764,-65.678 17.817,-54.717 25.616,-112.203 38.424,-168.307 3.076,0.68 6.151,1.358 9.226,2.038 C -2.197,-0.293 -1.099,-0.146 0,0"
             style="fill:#5d8c34;fill-opacity:1;fill-rule:evenodd;stroke:none"
             id="path137020" />
        </g>
        <g
           id="g137022"
           transform="translate(329.8125,180.7168)">
          <path
             d="M 0,0 C -1.628,137.301 -13.162,273.099 -70.392,401.96 -19.749,267.055 -11.125,131.544 -12.971,-4.119 -11.48,-14.656 3.038,-10.129 0,0"
             style="fill:#5f992c;fill-opacity:1;fill-rule:evenodd;stroke:none"
             id="path137024" />
        </g>
        <g
           id="g137026"
           transform="translate(279.4346,530.041)">
          <path
             d="m 0,0 c 11.51,-38.901 20.119,-78.57 26.24,-118.822 8.724,-57.356 12.359,-115.278 13.196,-173.252 0.291,-20.117 0.249,-40.238 -0.024,-60.356 0.312,-2.029 1.293,-3.929 3.42,-4.472 1.856,-0.473 3.912,0.269 5.245,1.591 1.768,1.754 2.051,4.149 1.357,6.467 l -0.062,0.203 -0.003,0.211 c -0.806,67.983 -4.034,136.137 -14.249,203.423 -5.118,33.72 -11.995,67.164 -21.103,100.04 C 9.821,-29.826 5.156,-14.826 0,0"
             style="fill:#79b048;fill-opacity:1;fill-rule:evenodd;stroke:none"
             id="path137028" />
        </g>
        <g
           id="g137030"
           transform="translate(271.8389,550.2915)">
          <path
             d="m 0,0 v 0 c 5.177,1.503 10.641,-1.502 12.143,-6.677 l 20.632,-71.049 c 1.504,-5.175 -1.501,-10.639 -6.676,-12.143 h -0.001 c -5.175,-1.502 -10.64,1.502 -12.143,6.678 L -6.678,-12.143 C -8.18,-6.967 -5.176,-1.503 0,0"
             style="fill:#996633;fill-opacity:1;fill-rule:evenodd;stroke:none"
             id="path137032" />
        </g>
        <g
           id="g137034"
           transform="translate(278.21,546.9121)">
          <path
             d="m 0,0 v 0 c 1.764,0.512 3.625,-0.511 4.137,-2.275 l 12.716,-43.787 c 0.511,-1.764 -0.512,-3.625 -2.275,-4.137 h -10e-4 c -1.763,-0.511 -3.624,0.512 -4.137,2.276 L -2.275,-4.137 C -2.787,-2.374 -1.764,-0.512 0,0"
             style="fill:#b8824c;fill-opacity:1;fill-rule:evenodd;stroke:none"
             id="path137036" />
        </g>
        <g
           id="g137038"
           transform="translate(304.9512,470.8423)">
          <path
             d="M 0,0 C 1.212,-11.787 -15.845,-15.147 -19.157,-3.742 -26.034,19.941 -32.912,43.624 -39.79,67.307 -30.965,42.229 -18.286,2.92 -18.005,1.949 -15.521,-6.605 -4.066,-7.459 0,0"
             style="fill:#87531f;fill-opacity:1;fill-rule:evenodd;stroke:none"
             id="path137040" />
        </g>
        <g
           id="g137042"
           transform="translate(297.0576,482.0093)">
          <path
             d="m 0,0 v 0 c 1.764,0.513 2.787,2.373 2.275,4.137 l -1.52,5.234 c -0.513,1.763 -2.374,2.786 -4.137,2.274 H -3.383 C -5.146,11.134 -6.169,9.272 -5.656,7.509 L -4.137,2.274 C -3.625,0.511 -1.764,-0.513 0,0"
             style="fill:#b8824c;fill-opacity:1;fill-rule:evenodd;stroke:none"
             id="path137044" />
        </g>
        <g
           id="g137046"
           transform="translate(266.625,571.1333)">
          <path
             d="m 0,0 c 2.972,-0.18 5.233,-2.734 5.054,-5.705 -0.18,-2.971 -2.735,-5.234 -5.705,-5.054 -2.971,0.179 -5.235,2.734 -5.054,5.705 C -5.525,-2.083 -2.972,0.18 0,0"
             style="fill:#996633;fill-opacity:1;fill-rule:evenodd;stroke:none"
             id="path137048" />
        </g>
        <g
           id="g137050"
           transform="translate(267.0908,570.3687)">
          <path
             d="m 0,0 c 1.802,-0.109 3.174,-1.657 3.065,-3.458 -0.11,-1.802 -1.658,-3.173 -3.46,-3.065 -1.8,0.109 -3.171,1.658 -3.063,3.459 C -3.35,-1.263 -1.801,0.109 0,0"
             style="fill:#b8824c;fill-opacity:1;fill-rule:evenodd;stroke:none"
             id="path137052" />
        </g>
        <g
           id="g137054"
           transform="translate(271.6885,565.8149)">
          <path
             d="m 0,0 c 0.002,-0.128 -0.002,-0.257 -0.01,-0.387 -0.18,-2.971 -2.734,-5.234 -5.705,-5.053 -2.971,0.179 -5.234,2.733 -5.054,5.704 0.019,0.306 0.062,0.604 0.129,0.893 0.03,-2.803 2.223,-5.146 5.064,-5.318 C -2.91,-4.322 -0.581,-2.518 0,0"
             style="fill:#87531f;fill-opacity:1;fill-rule:evenodd;stroke:none"
             id="path137056" />
        </g>
        <g
           id="g137058"
           transform="translate(331.377,176.5742)">
          <path
             d="M 0,0 C -8.308,114.736 -24.825,227.713 -79.204,332.578 -30.028,222.326 -15.959,109.439 -10.638,-4.102 -8.858,-12.838 3.055,-8.316 0,0"
             style="fill:#5f992c;fill-opacity:1;fill-rule:evenodd;stroke:none"
             id="path137060" />
        </g>
        <g
           id="g137062"
           transform="translate(271.5732,466.1479)">
          <path
             d="m 0,0 c 11.594,-31.948 20.8,-64.686 27.956,-98.038 10.197,-47.522 16.168,-95.776 19.803,-144.213 1.261,-16.809 2.243,-33.637 3.033,-50.475 0.363,-1.682 1.279,-3.221 3.086,-3.566 1.575,-0.303 3.258,0.421 4.306,1.595 1.389,1.557 1.505,3.575 0.806,5.477 l -0.061,0.166 -0.013,0.178 c -4.113,56.81 -10.263,113.638 -22.209,169.391 -5.987,27.939 -13.43,55.558 -22.711,82.59 C 9.723,-24.444 5.062,-12.138 0,0"
             style="fill:#79b048;fill-opacity:1;fill-rule:evenodd;stroke:none"
             id="path137064" />
        </g>
        <g
           id="g137066"
           transform="translate(264.1963,482.6978)">
          <path
             d="M 0,0 H 0.001 C 4.253,1.519 8.975,-0.717 10.493,-4.969 L 31.342,-63.34 c 1.519,-4.252 -0.717,-8.973 -4.969,-10.492 -4.253,-1.52 -8.975,0.718 -10.493,4.97 l -20.849,58.37 C -6.488,-6.24 -4.252,-1.519 0,0"
             style="fill:#996633;fill-opacity:1;fill-rule:evenodd;stroke:none"
             id="path137068" />
        </g>
        <g
           id="g137070"
           transform="translate(269.6953,480.1938)">
          <path
             d="m 0,0 v 0.001 c 1.448,0.517 3.058,-0.245 3.574,-1.693 l 12.849,-35.974 c 0.518,-1.448 -0.243,-3.057 -1.693,-3.574 -1.448,-0.518 -3.057,0.244 -3.575,1.693 L -1.693,-3.574 C -2.21,-2.125 -1.448,-0.517 0,0"
             style="fill:#b8824c;fill-opacity:1;fill-rule:evenodd;stroke:none"
             id="path137072" />
        </g>
        <g
           id="g137074"
           transform="translate(295.9072,417.9341)">
          <path
             d="M 0,0 C 1.609,-9.796 -12.484,-13.469 -15.831,-4.099 -22.781,15.358 -29.73,34.814 -36.68,54.271 -28.031,33.747 -15.439,1.517 -15.154,0.72 -12.645,-6.309 -3.022,-6.443 0,0"
             style="fill:#87531f;fill-opacity:1;fill-rule:evenodd;stroke:none"
             id="path137076" />
        </g>
        <g
           id="g137078"
           transform="translate(288.7412,426.8735)">
          <path
             d="m 0,0 v 0 c 1.448,0.518 2.21,2.125 1.693,3.574 l -1.537,4.3 C -0.361,9.322 -1.969,10.084 -3.418,9.567 -4.867,9.05 -5.629,7.441 -5.111,5.992 l 1.536,-4.3 C -3.058,0.244 -1.449,-0.518 0,0"
             style="fill:#b8824c;fill-opacity:1;fill-rule:evenodd;stroke:none"
             id="path137080" />
        </g>
        <g
           id="g137082"
           transform="translate(258.7822,490.8325)">
          <path
             d="M 0,0 C 2.486,0 4.516,2.029 4.516,4.516 4.516,7.002 2.486,9.031 0,9.031 -2.486,9.031 -4.516,7.002 -4.516,4.516 -4.516,2.029 -2.486,0 0,0"
             style="fill:#996633;fill-opacity:1;fill-rule:evenodd;stroke:none"
             id="path137084" />
        </g>
        <g
           id="g137086"
           transform="translate(259.2109,493.7729)">
          <path
             d="M 0,0 C 1.507,0 2.737,1.23 2.737,2.737 2.737,4.245 1.507,5.475 0,5.475 -1.507,5.475 -2.737,4.245 -2.737,2.737 -2.737,1.23 -1.507,0 0,0"
             style="fill:#b8824c;fill-opacity:1;fill-rule:evenodd;stroke:none"
             id="path137088" />
        </g>
        <g
           id="g137090"
           transform="translate(263.2852,495.6724)">
          <path
             d="m 0,0 c 0.008,-0.107 0.012,-0.215 0.012,-0.324 0,-2.494 -2.022,-4.516 -4.515,-4.516 -2.494,0 -4.516,2.022 -4.516,4.516 0,0.256 0.022,0.508 0.063,0.753 0.166,-2.342 2.119,-4.191 4.504,-4.191 2.236,0 4.094,1.627 4.452,3.762"
             style="fill:#87531f;fill-opacity:1;fill-rule:evenodd;stroke:none"
             id="path137092" />
        </g>
        <g
           id="g137094"
           transform="translate(309.9619,179.6387)">
          <path
             d="M 0,0 C 8.308,114.736 24.825,227.713 79.204,332.578 30.028,222.325 15.959,109.439 10.638,-4.102 8.858,-12.838 -3.055,-8.316 0,0"
             style="fill:#5f992c;fill-opacity:1;fill-rule:evenodd;stroke:none"
             id="path137096" />
        </g>
        <g
           id="g137098"
           transform="translate(369.7666,469.2114)">
          <path
             d="m 0,0 c -11.595,-31.947 -20.801,-64.685 -27.957,-98.037 -10.197,-47.523 -16.168,-95.776 -19.802,-144.213 -1.261,-16.809 -2.244,-33.639 -3.034,-50.475 -0.363,-1.682 -1.279,-3.221 -3.086,-3.567 -1.575,-0.302 -3.258,0.422 -4.305,1.596 -1.39,1.557 -1.506,3.574 -0.806,5.477 l 0.06,0.166 0.013,0.178 c 4.114,56.81 10.263,113.638 22.21,169.391 5.986,27.939 13.429,55.558 22.71,82.589 C -9.723,-24.443 -5.062,-12.137 0,0"
             style="fill:#79b048;fill-opacity:1;fill-rule:evenodd;stroke:none"
             id="path137100" />
        </g>
        <g
           id="g137102"
           transform="translate(377.1426,485.7622)">
          <path
             d="M 0,0 H -0.001 C -4.253,1.52 -8.975,-0.717 -10.493,-4.969 L -31.342,-63.34 c -1.518,-4.252 0.718,-8.974 4.97,-10.492 4.252,-1.52 8.974,0.717 10.492,4.969 L 4.97,-10.492 C 6.488,-6.24 4.252,-1.518 0,0"
             style="fill:#996633;fill-opacity:1;fill-rule:evenodd;stroke:none"
             id="path137104" />
        </g>
        <g
           id="g137106"
           transform="translate(371.6445,483.2583)">
          <path
             d="m 0,0 h -0.001 c -1.448,0.518 -3.057,-0.244 -3.574,-1.692 l -12.85,-35.974 c -0.517,-1.449 0.245,-3.057 1.694,-3.574 1.449,-0.518 3.056,0.244 3.574,1.692 L 1.692,-3.574 C 2.21,-2.125 1.448,-0.518 0,0"
             style="fill:#b8824c;fill-opacity:1;fill-rule:evenodd;stroke:none"
             id="path137108" />
        </g>
        <g
           id="g137110"
           transform="translate(345.4316,420.9985)">
          <path
             d="m 0,0 c -1.609,-9.796 12.484,-13.469 15.831,-4.099 6.95,19.456 13.899,38.913 20.85,58.37 C 28.031,33.747 15.44,1.516 15.155,0.719 12.645,-6.31 3.023,-6.443 0,0"
             style="fill:#87531f;fill-opacity:1;fill-rule:evenodd;stroke:none"
             id="path137112" />
        </g>
        <g
           id="g137114"
           transform="translate(352.5986,429.937)">
          <path
             d="m 0,0 h -0.001 c -1.448,0.518 -2.21,2.126 -1.692,3.575 l 1.536,4.3 C 0.36,9.323 1.968,10.085 3.417,9.567 4.866,9.05 5.628,7.442 5.11,5.993 L 3.574,1.692 C 3.057,0.245 1.448,-0.518 0,0"
             style="fill:#b8824c;fill-opacity:1;fill-rule:evenodd;stroke:none"
             id="path137116" />
        </g>
        <g
           id="g137118"
           transform="translate(382.5576,493.897)">
          <path
             d="M 0,0 C 2.486,0 4.515,2.028 4.515,4.516 4.515,7.002 2.486,9.031 0,9.031 -2.487,9.031 -4.516,7.002 -4.516,4.516 -4.516,2.028 -2.487,0 0,0"
             style="fill:#996633;fill-opacity:1;fill-rule:evenodd;stroke:none"
             id="path137120" />
        </g>
        <g
           id="g137122"
           transform="translate(382.1289,496.8374)">
          <path
             d="M 0,0 C 1.508,0 2.737,1.229 2.737,2.737 2.737,4.245 1.508,5.475 0,5.475 -1.508,5.475 -2.737,4.245 -2.737,2.737 -2.737,1.229 -1.508,0 0,0"
             style="fill:#b8824c;fill-opacity:1;fill-rule:evenodd;stroke:none"
             id="path137124" />
        </g>
        <g
           id="g137126"
           transform="translate(378.0537,498.7368)">
          <path
             d="m 0,0 c -0.008,-0.107 -0.012,-0.215 -0.012,-0.324 0,-2.494 2.022,-4.516 4.516,-4.516 2.493,0 4.515,2.022 4.515,4.516 0,0.256 -0.022,0.508 -0.063,0.753 C 8.79,-1.914 6.837,-3.762 4.452,-3.762 2.216,-3.762 0.358,-2.136 0,0"
             style="fill:#87531f;fill-opacity:1;fill-rule:evenodd;stroke:none"
             id="path137128" />
        </g>
        <g
           id="g137130"
           transform="translate(330.2549,173.6875)">
          <path
             d="m 0,0 c -12.246,36.037 -14.604,77.146 -36.738,108.109 -20.926,29.276 -64.721,35.884 -86.61,64.446 -16.853,21.99 3.293,73.879 -23.808,79.633 -28.68,6.087 -42.142,-40.775 -63.213,-61.162 19.84,15.599 35.48,54.482 59.519,46.795 23.04,-7.369 1.303,-51.416 15.706,-70.852 C -113.42,137.656 -69.289,129.981 -48.642,99.9 -27.043,68.434 -25.654,27.109 -14.161,-9.287 -9.44,-6.191 -4.721,-3.096 0,0"
             style="fill:#487025;fill-opacity:1;fill-rule:evenodd;stroke:none"
             id="path137132" />
        </g>
        <g
           id="g137134"
           transform="translate(313.2256,171.291)">
          <path
             d="m 0,0 c 8.703,40.086 6.92,84.002 26.111,120.254 9.309,17.585 39.844,13.006 52.541,28.325 14.225,17.163 0.718,61.769 22.987,62.802 23.807,1.104 25.997,-39.953 38.995,-59.929 -12.862,16.829 -17.856,54.843 -38.585,50.488 C 80.86,197.488 97.005,156.849 83.988,139.547 72.91,124.822 43.374,129.864 35.347,113.277 18.695,78.871 22.803,37.865 16.531,0.16 11.021,0.107 5.511,0.053 0,0"
             style="fill:#5d8c34;fill-opacity:1;fill-rule:evenodd;stroke:none"
             id="path137136" />
        </g>
        <g
           id="g137138"
           transform="translate(304.4463,145.8281)">
          <path
             d="m 0,0 c 36.173,0 65.676,7.283 65.676,16.213 0,8.93 -29.503,16.215 -65.676,16.215 -36.173,0 -65.676,-7.285 -65.676,-16.215 C -65.676,7.283 -36.173,0 0,0"
             style="fill:#487025;fill-opacity:1;fill-rule:evenodd;stroke:none"
             id="path137140" />
        </g>
        <g
           id="g137142"
           transform="translate(333.1904,158.0762)">
          <path
             d="m 0,0 c -7.408,-4.277 -24.61,-7.275 -44.65,-7.275 -26.807,0 -48.539,5.363 -48.539,11.982 0,3.377 5.662,6.428 14.767,8.606 -2.503,-1.446 -3.89,-3.036 -3.89,-4.708 0,-6.617 21.732,-11.982 48.54,-11.982 C -20.645,-3.377 -8.737,-2.09 0,0"
             style="fill:#83a367;fill-opacity:1;fill-rule:evenodd;stroke:none"
             id="path137144" />
        </g>
        <g
           id="g137146"
           transform="translate(405.8701,131.543)">
          <path
             d="m 0,0 c -19.814,-11.443 -65.817,-19.461 -119.412,-19.461 -71.692,0 -129.811,14.348 -129.811,32.047 0,9.031 15.141,17.189 39.491,23.014 -6.692,-3.864 -10.4,-8.118 -10.4,-12.586 0,-17.7 58.118,-32.047 129.811,-32.047 35.108,0 66.955,3.443 90.321,9.033"
             style="fill:#cfdfff;fill-opacity:1;fill-rule:evenodd;stroke:none"
             id="path137148" />
        </g>
        <g
           id="g137150"
           transform="translate(218.1133,148.5488)">
          <path
             d="m 0,0 c -7.124,-4.115 -23.667,-6.998 -42.94,-6.998 -25.78,0 -46.68,5.158 -46.68,11.523 0,3.248 5.445,6.182 14.201,8.276 -2.406,-1.389 -3.74,-2.918 -3.74,-4.526 0,-6.365 20.9,-11.523 46.679,-11.523 12.625,0 24.078,1.238 32.48,3.248"
             style="fill:#cfdfff;fill-opacity:1;fill-rule:evenodd;stroke:none"
             id="path137152" />
        </g>
      </g>
    </g>
  </g>
</svg>
